# xmcd
#
# Track frame offsets:
#	150
#	14720
#	31910
#	44887
#	61022
#	81207
#	95017
#	110154
#	124050
#	140640
#	151322
#	164957
#	178367
#
# Disc length: 2574 seconds
#
# Revision: 1
# Processed by: cddbd v1.5.1PL2 Copyright (c) Steve Scherf et al.
# Submitted via: audiograbber 1.83.01
#
DISCID=c40a0c0d
DTITLE=Martin Lutero - As Melhores Canções 2
DYEAR=1900
DGENRE=Gospel
TTITLE0=Chuva Fina
TTITLE1=Ele é o Amor
TTITLE2=Ajuda-me
TTITLE3=Vida Pregressa
TTITLE4=Você é Demais
TTITLE5=Desafio
TTITLE6=Teu Outra Vez
TTITLE7=Estradas do Amanhã
TTITLE8=How Great Thou Art
TTITLE9=Jovem Te Falta Alguma Coisa
TTITLE10=Energia
TTITLE11=Doce Como o Mel
TTITLE12=Maravilha de Ti
EXTD=
EXTT0=
EXTT1=
EXTT2=
EXTT3=
EXTT4=
EXTT5=
EXTT6=
EXTT7=
EXTT8=
EXTT9=
EXTT10=
EXTT11=
EXTT12=
PLAYORDER=
